<?xml version="1.0" encoding="UTF-8"?>
<svg xmlns="http://www.w3.org/2000/svg" width="645" height="573" viewBox="181 96 645 573">
  <path d="M440 445 Q435 439 433 433 Q431 427 430.5 408.5 Q430 390 432 387 Q434 384 444.5 380 Q455 376 462.5 376 Q470 376 473.5 380.5 Q477 385 479.5 391.5 Q482 398 482.5 408.5 Q483 419 478 428.5 Q473 438 472 438.5 L471 439" stroke="#3a3a3a" stroke-width="3" fill="none" stroke-linecap="round" stroke-linejoin="round"/>
  <path d="M461 441 Q458 440 458 435 Q458 430 462 429.5 Q466 429 468.5 432 Q471 435 471.5 438.5 Q472 442 470.5 443 Q469 444 467 444 Q465 444 463 441 Q461 438 461 437 Q461 436 462.5 436 Q464 436 464.5 434 Q465 432 463 432.5 Q461 433 460 431.5 Q459 430 461.5 431.5 Q464 433 463.5 434 Q463 435 463 434 Q463 433 465 433.5 Q467 434 466.5 433.5 Q466 433 466.5 435.5 L467 438" stroke="#3a3a3a" stroke-width="3" fill="none" stroke-linecap="round" stroke-linejoin="round"/>
  <path d="M518 447 Q515 445 512.5 436 Q510 427 510 411 Q510 395 513.5 388 Q517 381 522 378 Q527 375 532 375 Q537 375 540.5 377 Q544 379 547 382 Q550 385 553.5 391.5 Q557 398 558.5 405.5 Q560 413 560 420 Q560 427 558.5 431 Q557 435 552.5 439.5 L548 444" stroke="#3a3a3a" stroke-width="3" fill="none" stroke-linecap="round" stroke-linejoin="round"/>
  <path d="M524 442 Q524 432 526 433 Q528 434 530 440.5 Q532 447 531 447 Q530 447 529.5 446 Q529 445 529 443 Q529 441 530 441 Q531 441 529.5 441.5 Q528 442 526.5 439.5 Q525 437 525 439 Q525 441 524.5 440.5 Q524 440 524 437 Q524 434 526.5 438 Q529 442 528.5 441 L528 440" stroke="#3a3a3a" stroke-width="3" fill="none" stroke-linecap="round" stroke-linejoin="round"/>
  <path d="M402 473 Q392 442 390.5 435 Q389 428 388.5 412 Q388 396 393.5 383.5 Q399 371 405 363 Q411 355 416.5 349.5 Q422 344 427 340.5 Q432 337 440.5 334 Q449 331 455 329.5 Q461 328 467.5 327.5 Q474 327 494 327 Q514 327 522 328.5 Q530 330 534.5 332 Q539 334 562 347 Q585 360 598 369.5 Q611 379 618.5 386.5 Q626 394 630 400 Q634 406 635.5 412 Q637 418 637 425.5 Q637 433 634 440.5 Q631 448 628 451 Q625 454 619 458 Q613 462 601 466.5 Q589 471 580 472 Q571 473 568.5 474 L566 475" stroke="#b06060" stroke-width="3" fill="none" stroke-linecap="round" stroke-linejoin="round"/>
  <path d="M403 473 Q379 473 369 474 Q359 475 345.5 478 Q332 481 317 486 Q302 491 290.5 497 Q279 503 266 511.5 Q253 520 243 528 Q233 536 218.5 551.5 Q204 567 219 556.5 Q234 546 253.5 536 Q273 526 321.5 513.5 Q370 501 381 499.5 Q392 498 403.5 498 Q415 498 418.5 496.5 L422 495" stroke="#b06060" stroke-width="3" fill="none" stroke-linecap="round" stroke-linejoin="round"/>
  <path d="M425 488 Q427 580 436.5 552 Q446 524 449.5 519.5 Q453 515 459.5 509 Q466 503 468 502 Q470 501 472.5 501 Q475 501 498 524.5 Q521 548 521 540.5 Q521 533 523.5 520.5 Q526 508 527 506.5 Q528 505 533.5 505 Q539 505 558 510 Q577 515 588 519 Q599 523 626.5 536 Q654 549 681.5 564.5 Q709 580 724 589.5 Q739 599 767 618 Q795 637 799 641.5 Q803 646 795 640.5 Q787 635 770.5 619.5 Q754 604 739 592 Q724 580 664.5 541 Q605 502 589 494.5 Q573 487 564.5 486.5 Q556 486 550.5 484.5 Q545 483 587.5 483 Q630 483 638 485 Q646 487 622.5 479 Q599 471 586 471 Q573 471 569 472.5 L565 474" stroke="#b06060" stroke-width="3" fill="none" stroke-linecap="round" stroke-linejoin="round"/>
  <circle cx="327" cy="122" r="1.5" fill="#b06060"/>
  <path d="M395 501 Q392 501 388.5 503 Q385 505 360.5 528.5 Q336 552 326.5 565 Q317 578 309.5 590.5 Q302 603 299.5 610 Q297 617 296.5 624 Q296 631 301 626 Q306 621 323 595 Q340 569 348.5 559 Q357 549 368 540 Q379 531 400.5 522 L422 513" stroke="#607aab" stroke-width="3" fill="none" stroke-linecap="round" stroke-linejoin="round"/>
  <path d="M526 527 Q536 527 542.5 529.5 Q549 532 560.5 539 Q572 546 576.5 549.5 Q581 553 601 573 Q621 593 619 573 Q617 553 614.5 541.5 L612 530" stroke="#607aab" stroke-width="3" fill="none" stroke-linecap="round" stroke-linejoin="round"/>
  <path d="M618 316 Q617 301 619.5 297 Q622 293 626.5 291.5 Q631 290 639.5 289.5 Q648 289 649.5 289.5 Q651 290 655 295 Q659 300 661 305.5 Q663 311 663 314.5 Q663 318 661.5 319.5 Q660 321 656.5 322.5 Q653 324 641 324 Q629 324 625.5 320.5 Q622 317 622 315 L622 313" stroke="#5f9a68" stroke-width="3" fill="none" stroke-linecap="round" stroke-linejoin="round"/>
  <path d="M587 246 Q598 246 599 249 Q600 252 599.5 257.5 Q599 263 596.5 267 Q594 271 592.5 272 Q591 273 587 273 Q583 273 581 270 Q579 267 579 261 Q579 255 580 253 Q581 251 584 250.5 L587 250" stroke="#5f9a68" stroke-width="3" fill="none" stroke-linecap="round" stroke-linejoin="round"/>
  <path d="M593 160 Q599 160 598.5 163.5 Q598 167 592 167.5 Q586 168 585.5 165.5 Q585 163 586 161.5 L587 160" stroke="#5f9a68" stroke-width="3" fill="none" stroke-linecap="round" stroke-linejoin="round"/>
  <path d="M634 230 Q639 230 640 231 Q641 232 641.5 234.5 Q642 237 641 238 Q640 239 636.5 239 Q633 239 633 234 L633 229" stroke="#5f9a68" stroke-width="3" fill="none" stroke-linecap="round" stroke-linejoin="round"/>
  <path d="M706 144 Q716 144 719 149 Q722 154 722 156 Q722 158 718.5 160.5 Q715 163 713 163 Q711 163 709 160.5 Q707 158 707 151.5 Q707 145 708.5 144.5 L710 144" stroke="#5f9a68" stroke-width="3" fill="none" stroke-linecap="round" stroke-linejoin="round"/>
  <path d="M342 122 Q346 119 351.5 119 Q357 119 359.5 124 Q362 129 362 132.5 Q362 136 361 137 Q360 138 356 139 Q352 140 349 137.5 Q346 135 345.5 128.5 Q345 122 346 121 L347 120" stroke="#5f9a68" stroke-width="3" fill="none" stroke-linecap="round" stroke-linejoin="round"/>
  <text y="250" font-family="serif" font-size="24" fill="#5f9a68" dominant-baseline="central"><tspan x="381">blup blup</tspan></text>
</svg>